<svg xmlns="http://www.w3.org/2000/svg" viewBox="0 0 1440 900" role="img"><title>Aperture fold</title><desc>An original architectural vector fold for the FELYA brand space. It is separate from the canonical Pyra and does not modify logo geometry.</desc><metadata>FELYA Creative Canvas / original locally authored vector geometry / 2026-10-08 / not product geometry or measured data</metadata><defs><linearGradient id="crease" x1="0" y1="0" x2="1" y2="1"><stop stop-color="#f5f6ef" stop-opacity=".8"/><stop offset="1" stop-color="#9cafef" stop-opacity=".2"/></linearGradient></defs><path d="M270 90 L1310 235 L1105 840 L90 630Z" fill="none" stroke="url(#crease)" stroke-width="2" opacity="1"/><path d="M282 102 L1302.8 241 L1102.6 828 L110.4 627Z" fill="none" stroke="url(#crease)" stroke-width="1" opacity="0.98"/><path d="M294 114 L1295.6 247 L1100.2 816 L130.8 624Z" fill="none" stroke="url(#crease)" stroke-width="1" opacity="0.95"/><path d="M306 126 L1288.4 253 L1097.8 804 L151.2 621Z" fill="none" stroke="url(#crease)" stroke-width="1" opacity="0.93"/><path d="M318 138 L1281.2 259 L1095.4 792 L171.6 618Z" fill="none" stroke="url(#crease)" stroke-width="1" opacity="0.9"/><path d="M330 150 L1274 265 L1093 780 L192 615Z" fill="none" stroke="url(#crease)" stroke-width="2" opacity="0.88"/><path d="M342 162 L1266.8 271 L1090.6 768 L212.4 612Z" fill="none" stroke="url(#crease)" stroke-width="1" opacity="0.86"/><path d="M354 174 L1259.6 277 L1088.2 756 L232.8 609Z" fill="none" stroke="url(#crease)" stroke-width="1" opacity="0.83"/><path d="M366 186 L1252.4 283 L1085.8 744 L253.2 606Z" fill="none" stroke="url(#crease)" stroke-width="1" opacity="0.81"/><path d="M378 198 L1245.2 289 L1083.4 732 L273.6 603Z" fill="none" stroke="url(#crease)" stroke-width="1" opacity="0.78"/><path d="M390 210 L1238 295 L1081 720 L294 600Z" fill="none" stroke="url(#crease)" stroke-width="2" opacity="0.76"/><path d="M402 222 L1230.8 301 L1078.6 708 L314.4 597Z" fill="none" stroke="url(#crease)" stroke-width="1" opacity="0.74"/><path d="M414 234 L1223.6 307 L1076.2 696 L334.8 594Z" fill="none" stroke="url(#crease)" stroke-width="1" opacity="0.71"/><path d="M426 246 L1216.4 313 L1073.8 684 L355.2 591Z" fill="none" stroke="url(#crease)" stroke-width="1" opacity="0.69"/><path d="M438 258 L1209.2 319 L1071.4 672 L375.6 588Z" fill="none" stroke="url(#crease)" stroke-width="1" opacity="0.66"/><path d="M450 270 L1202 325 L1069 660 L396 585Z" fill="none" stroke="url(#crease)" stroke-width="2" opacity="0.64"/><path d="M462 282 L1194.8 331 L1066.6 648 L416.4 582Z" fill="none" stroke="url(#crease)" stroke-width="1" opacity="0.62"/><path d="M474 294 L1187.6 337 L1064.2 636 L436.8 579Z" fill="none" stroke="url(#crease)" stroke-width="1" opacity="0.59"/><path d="M486 306 L1180.4 343 L1061.8 624 L457.2 576Z" fill="none" stroke="url(#crease)" stroke-width="1" opacity="0.57"/><path d="M498 318 L1173.2 349 L1059.4 612 L477.6 573Z" fill="none" stroke="url(#crease)" stroke-width="1" opacity="0.54"/><path d="M510 330 L1166 355 L1057 600 L498 570Z" fill="none" stroke="url(#crease)" stroke-width="2" opacity="0.52"/><path d="M522 342 L1158.8 361 L1054.6 588 L518.4 567Z" fill="none" stroke="url(#crease)" stroke-width="1" opacity="0.5"/><path d="M534 354 L1151.6 367 L1052.2 576 L538.8 564Z" fill="none" stroke="url(#crease)" stroke-width="1" opacity="0.47"/><path d="M546 366 L1144.4 373 L1049.8 564 L559.2 561Z" fill="none" stroke="url(#crease)" stroke-width="1" opacity="0.45"/><path d="M558 378 L1137.2 379 L1047.4 552 L579.6 558Z" fill="none" stroke="url(#crease)" stroke-width="1" opacity="0.42"/><path d="M570 390 L1130 385 L1045 540 L600 555Z" fill="none" stroke="url(#crease)" stroke-width="2" opacity="0.4"/><path d="M582 402 L1122.8 391 L1042.6 528 L620.4 552Z" fill="none" stroke="url(#crease)" stroke-width="1" opacity="0.38"/><path d="M594 414 L1115.6 397 L1040.2 516 L640.8 549Z" fill="none" stroke="url(#crease)" stroke-width="1" opacity="0.35"/><path d="M606 426 L1108.4 403 L1037.8 504 L661.2 546Z" fill="none" stroke="url(#crease)" stroke-width="1" opacity="0.33"/><path d="M618 438 L1101.2 409 L1035.4 492 L681.6 543Z" fill="none" stroke="url(#crease)" stroke-width="1" opacity="0.3"/></svg>
